<?xml version="1.0" encoding="utf-8"?>
<!-- Generator: Adobe Illustrator 18.0.0, SVG Export Plug-In . SVG Version: 6.00 Build 0)  -->
<!DOCTYPE svg PUBLIC "-//W3C//DTD SVG 1.1//EN" "http://www.w3.org/Graphics/SVG/1.1/DTD/svg11.dtd">
<svg version="1.1" id="Layer_1" xmlns="http://www.w3.org/2000/svg" xmlns:xlink="http://www.w3.org/1999/xlink" x="0px" y="0px"
	 viewBox="0 0 8 8" enable-background="new 0 0 8 8" xml:space="preserve">
<path fill="#B84141" d="M5.9,0c-0.2,0-0.4,0-0.5,0.1C5.1,0.2,4.8,0.4,4.6,0.6C4.4,0.7,4.3,1,4.4,1.3s0.5,0.3,0.7,0.2
	c0.1,0,0.1-0.1,0.2-0.2c0.1-0.1,0.2-0.2,0.4-0.2C6,0.9,6.5,1,6.7,1.3c0.4,0.4,0.4,1,0,1.4L5.2,4.2C4.8,4.7,4.4,4.7,4.2,4.7
	S3.8,4.6,3.8,4.6C3.5,4.4,3.2,4.5,3.1,4.8S3,5.3,3.3,5.4c0,0,0.3,0.2,0.8,0.2s1.2-0.2,1.8-0.8l1.5-1.5c0.8-0.8,0.8-2,0-2.8
	c-0.3-0.3-0.6-0.4-1-0.5C6.3,0,6.1,0,5.9,0L5.9,0z M3.9,2.3c-0.5,0-1.2,0.2-1.8,0.8L0.6,4.6c-0.8,0.8-0.8,2,0,2.8
	C1.2,8,2,8.1,2.7,7.9c0.3-0.1,0.5-0.2,0.8-0.5c0.2-0.1,0.3-0.5,0.2-0.7C3.4,6.5,3.1,6.4,2.9,6.6c-0.1,0-0.1,0.1-0.2,0.2
	C2.6,6.8,2.5,6.9,2.3,6.9C2,7,1.6,7,1.3,6.7c-0.4-0.4-0.4-1,0-1.4l1.5-1.5c0.4-0.4,0.8-0.5,1-0.4s0.5,0.1,0.5,0.1
	C4.5,3.6,4.8,3.5,5,3.3c0.2-0.2,0.1-0.5-0.1-0.7c0,0-0.1-0.1-0.2-0.1C4.7,2.5,4.4,2.3,3.9,2.3L3.9,2.3z"/>
</svg>
